<?xml version="1.0" encoding="UTF-8"?>
<svg id="Layer_2" data-name="Layer 2" xmlns="http://www.w3.org/2000/svg" viewBox="0 0 2669.09 610.96">
  <defs>
    <style>
      .cls-1 {
        fill: #fff;
        stroke-width: 0px;
      }
    </style>
  </defs>
  <g id="_Слой_1" data-name="Слой 1">
    <g>
      <path class="cls-1" d="m638.07,430.21h56.54c0,27.8,26.88,48.66,61.64,48.66,32.44,0,58.4-17.61,58.4-43.1,0-63.49-171.02-34.76-171.02-143.67,0-57.47,49.13-94.55,110.77-94.55s111.7,40.32,111.7,94.08h-56.54c0-25.49-24.1-44.49-56.08-44.49-28.73,0-53.3,15.76-53.3,40.79,0,63.49,171.48,30.59,171.48,141.82,0,59.79-51.45,98.72-115.87,98.72s-117.72-42.64-117.72-98.25Z"/>
      <path class="cls-1" d="m906.43,189.21h51.91v128.84c19-24.1,46.35-37.08,79.72-37.08,56.08,0,93.62,37.08,93.62,93.15v148.77h-51.91v-131.62c0-36.15-23.17-60.25-58.86-60.25-37.54,0-62.57,24.56-62.57,61.18v130.69h-51.91V189.21Z"/>
      <path class="cls-1" d="m1161.35,404.72c0-70.45,54.22-123.74,126.53-123.74s126.53,53.3,126.53,123.74-54.69,123.74-126.53,123.74-126.53-53.3-126.53-123.74Zm199.29,0c0-41.71-31.05-73.69-72.77-73.69s-73.23,31.98-73.23,73.69,31.51,73.69,73.23,73.69,72.77-31.97,72.77-73.69Z"/>
      <path class="cls-1" d="m1447.33,286.54h51.91v33.83c19.93-24.56,48.66-39.39,83.42-39.39,66.27,0,116.33,53.3,116.33,123.74s-50.05,123.74-116.33,123.74c-34.76,0-63.49-14.83-83.42-39.39v121.89h-51.91v-324.42Zm197.9,118.18c0-41.71-31.05-73.69-72.77-73.69s-73.23,31.98-73.23,73.69,31.51,73.69,73.23,73.69,72.77-31.97,72.77-73.69Z"/>
      <path class="cls-1" d="m1719.41,430.21h56.54c0,27.8,26.88,48.66,61.64,48.66,32.44,0,58.4-17.61,58.4-43.1,0-63.49-171.02-34.76-171.02-143.67,0-57.47,49.13-94.55,110.77-94.55s111.7,40.32,111.7,94.08h-56.54c0-25.49-24.1-44.49-56.08-44.49-28.73,0-53.3,15.76-53.3,40.79,0,63.49,171.48,30.59,171.48,141.82,0,59.79-51.45,98.72-115.87,98.72s-117.72-42.64-117.72-98.25Z"/>
      <path class="cls-1" d="m1973.4,404.72c0-70.45,49.59-123.74,116.33-123.74,34.76,0,63.49,14.83,82.96,39.39v-33.83h51.91v236.36h-51.91v-33.83c-19.46,24.56-48.2,39.39-82.96,39.39-66.74,0-116.33-53.3-116.33-123.74Zm199.29,0c0-41.71-31.05-73.69-72.76-73.69s-73.23,31.98-73.23,73.69,31.05,73.69,73.23,73.69,72.76-31.97,72.76-73.69Z"/>
      <path class="cls-1" d="m2416.5,404.72c0-70.45,54.22-123.74,126.06-123.74s126.53,53.3,126.53,124.21c0,6.49-.46,13.44-1.39,19.46h-195.58c7.88,34.3,35.69,57.01,72.76,57.01,27.34,0,50.98-12.05,63.03-30.13h57.47c-19,45.88-65.35,76.93-121.43,76.93-73.23,0-127.45-53.3-127.45-123.74Zm56.08-22.71h140.89c-7.88-32.45-35.68-54.22-70.91-54.22s-61.64,21.31-69.98,54.22Z"/>
      <g>
        <path class="cls-1" d="m480.88,150.72l45.65,318.37c8.04,56.05-35.45,106.22-92.07,106.22H93.03c-56.62,0-100.11-50.17-92.07-106.22L46.6,150.72h66.42v186.26c0,84.5,69.15,155.69,153.63,154.08,81.89-1.55,147.8-68.42,147.8-150.69v-189.65h66.42Z"/>
        <path class="cls-1" d="m263.74,58.96c32.05,0,60.22,16.45,76.63,41.34l51.68-28.39C365.56,28.79,318.06,0,263.74,0,180.5,0,113.03,67.48,113.03,150.72h58.96c0-50.68,41.08-91.76,91.76-91.76Z"/>
        <path class="cls-1" d="m284.31,350.43v-45.54c11.9-6.95,19.99-19.7,20.31-34.39.48-22.23-17.91-41.38-40.14-41.77-22.91-.4-41.6,18.05-41.6,40.87,0,15.07,8.18,28.2,20.32,35.29v45.54h41.13Z"/>
      </g>
      <path class="cls-1" d="m2424.42,161.23c-69.35,0-125.57,56.22-125.57,125.57h-40.41v47.01h39.86v189.09h51.91v-189.09h58.39v-47.01h-60.63c0-42.22,34.23-76.45,76.45-76.45,26.7,0,50.17,13.71,63.84,34.44l43.06-23.65c-22.07-35.92-61.64-59.91-106.9-59.91Z"/>
    </g>
  </g>
</svg>
